<svg width="438" height="321" viewBox="0 0 438 321" fill="none" xmlns="http://www.w3.org/2000/svg">
<g clip-path="url(#clip0)">
<path opacity="0.1" d="M28.6672 125.815H66.7349V177.276H31.4506C31.3606 177.808 31.2705 178.336 31.1692 178.868H66.7349V220.363C66.6749 220.363 66.6148 220.318 66.5586 220.296C65.5582 219.901 64.5579 219.484 63.5576 219.042C63.3437 218.945 63.1337 218.845 62.9161 218.752C61.9158 218.283 60.9154 217.787 59.9151 217.264C59.5662 217.082 59.2174 216.892 58.876 216.698C53.3225 213.625 48.2751 209.729 43.9085 205.144C43.7772 205.021 43.6572 204.887 43.5334 204.772C42.9257 204.117 42.3292 203.455 41.7515 202.778C41.534 202.528 41.3239 202.275 41.1101 202.034C40.4273 201.208 39.7671 200.352 39.1294 199.493C39.0319 199.363 38.9418 199.236 38.8481 199.121C36.2357 195.536 34.0693 191.651 32.3959 187.551C32.3434 187.428 32.2946 187.294 32.2459 187.179C31.7282 185.877 31.2593 184.556 30.8541 183.21C30.6816 182.648 30.5128 182.094 30.3702 181.51C30.3177 181.342 30.2764 181.171 30.2314 181.004C28.1232 172.763 27.8794 164.2 27.8794 155.677C27.8794 154.685 27.8794 153.693 27.8794 152.701C27.9094 149.221 27.9507 145.745 28.0032 142.273C28.0232 141.38 28.042 140.484 28.0595 139.583C28.112 137.304 28.187 135.02 28.2845 132.731C28.307 132.099 28.337 131.462 28.3708 130.834C28.3858 130.469 28.4046 130.105 28.4271 129.74C28.4946 128.423 28.5746 127.115 28.6672 125.815Z" fill="#006D75"/>
<path opacity="0.1" d="M66.7348 68.5176H45.8516C49.2478 63.2517 52.9568 58.1908 56.959 53.3617C60.0651 49.5821 63.3362 45.8991 66.7348 42.3501V68.5176Z" fill="#006D75"/>
<path opacity="0.1" d="M66.7348 70.1024V124.223H28.7871C28.7871 124.067 28.8096 123.907 28.8246 123.751C28.8584 123.323 28.8921 122.899 28.9297 122.471C28.9672 121.972 29.0159 121.474 29.0647 120.983C29.1135 120.492 29.1622 119.897 29.2223 119.357C29.2823 118.818 29.331 118.271 29.3911 117.731C29.4511 117.192 29.5111 116.653 29.5786 116.117C29.6461 115.581 29.7062 115.038 29.7812 114.502C29.8375 114.06 29.8937 113.613 29.9575 113.167C30.0438 112.538 30.1338 111.909 30.2276 111.284C30.2276 111.188 30.2576 111.095 30.2726 111.002C30.9582 106.427 31.8898 101.892 33.0635 97.4157C34.2961 92.7209 35.8695 88.1207 37.7714 83.6511C39.7923 78.968 42.1595 74.4394 44.8537 70.1024H66.7348Z" fill="#006D75"/>
<path opacity="0.1" d="M75.8279 125.815V177.276H157.14V125.815H75.8279ZM75.8279 178.868V223.063C76.293 223.156 76.7507 223.25 77.2121 223.328C77.8311 223.447 78.4538 223.555 79.0877 223.648L79.4628 223.7C79.7104 223.741 79.9618 223.774 80.2131 223.804C80.8396 223.893 81.466 223.96 82.0887 224.02C82.3813 224.049 82.6852 224.072 82.9815 224.098L83.7055 224.15C84.0994 224.18 84.4895 224.202 84.8797 224.217C85.1197 224.217 85.3598 224.235 85.6036 224.243C85.8475 224.25 85.9788 224.243 86.1738 224.243H86.8828C87.2054 224.243 87.528 224.243 87.8469 224.243H88.2595C88.5821 224.243 88.9048 224.243 89.2236 224.213H89.2424C89.4674 224.213 89.6888 224.213 89.9138 224.187C89.9776 224.191 90.0414 224.191 90.1051 224.187C90.2927 224.187 90.4803 224.187 90.6603 224.165C90.7028 224.161 90.7454 224.161 90.7879 224.165C91.2043 224.139 91.6244 224.105 92.0483 224.068C92.4722 224.031 92.8736 223.986 93.2975 223.941L94.149 223.837C97.6286 223.354 101.07 222.628 104.446 221.665C112.035 219.567 119.451 216.631 127.036 214.485C136.835 211.713 147.668 210.348 157.136 213.722V178.868H75.8279ZM157.14 68.5176V0.00743058C148.239 -0.0896918 139.361 0.941702 130.724 3.07655C110.133 8.20663 91.6432 19.3336 75.8279 33.5445V68.5139H79.9205V70.1024H75.8279V124.223H157.14V70.1024H96.6623V68.5102L157.14 68.5176ZM261.605 45.3746C256.511 45.196 251.447 43.6001 246.863 41.1262C238.107 36.4053 231.107 29.1064 223.29 22.9533C207.047 10.1299 186.902 2.38832 166.237 0.468728V68.5176H282.304L282.593 68.2163L261.605 45.3746ZM272.18 43.5145L283.392 55.7203V40.304C279.618 40.7765 276.332 41.8739 272.18 43.4996V43.5145ZM283.392 234.038V178.868H259.482C259.422 178.634 259.354 178.396 259.279 178.158C259.35 178.396 259.414 178.634 259.478 178.868H166.237V218.763C167.122 219.414 167.996 220.102 168.863 220.794C169.798 221.553 170.727 222.321 171.65 223.097L172.58 223.86C173.027 224.232 173.48 224.604 173.931 224.957C174.833 225.679 175.743 226.393 176.658 227.1C177.115 227.457 177.576 227.808 178.038 228.153C185.365 233.706 193.094 238.718 201.161 243.149C202.969 244.149 204.796 245.113 206.634 246.054C207.857 246.679 209.089 247.292 210.329 247.892C212.19 248.792 214.065 249.66 215.956 250.496C233.386 258.255 251.818 263.579 270.724 266.314C274.921 266.926 279.136 267.41 283.37 267.765V234.03H283.745L283.392 234.038ZM166.237 70.1024V124.223H283.392V70.1024H166.237ZM166.237 125.808V177.276H283.392V125.815L166.237 125.808ZM292.485 40.2296V57.4539L306.792 41.8776C302.051 41.1014 297.282 40.552 292.485 40.2296ZM292.485 125.815V177.276H406.43V125.815H292.485ZM406.028 238.119L406.43 178.868H292.485V268.364C299.825 268.666 307.175 268.578 314.505 268.1H314.633C318.134 267.876 321.619 267.559 325.087 267.147H325.166C343.677 265.01 361.776 260.216 378.895 252.914L406.028 238.119ZM428.412 134.267C427.979 133.275 427.535 132.283 427.08 131.291C426.232 129.431 425.34 127.623 424.417 125.819H415.526V177.276H438C437.981 162.7 434.26 147.82 428.412 134.267ZM415.526 178.868V229.834C421.855 223.819 427.208 216.933 431.057 209.061C435.689 199.578 437.809 189.318 437.985 178.864L415.526 178.868ZM415.526 110.819V124.212H423.584C421.141 119.608 418.452 115.137 415.526 110.819ZM338.251 50.3298C337.658 50.1029 337.061 49.876 336.465 49.6602C330.176 47.3552 323.749 45.4394 317.221 43.9237L295.321 67.755L294.894 68.2125L295.175 68.5139H373.118C362.262 61.1056 350.558 55.0016 338.251 50.3298ZM375.407 70.1024H294.083L292.485 71.5495V124.223H306.496H406.43V98.7028C397.393 87.8658 386.964 78.2504 375.407 70.1024Z" fill="#006D75"/>
<path opacity="0.1" d="M66.7348 97.4045V124.223H28.7871C28.7871 124.067 28.8096 123.907 28.8246 123.751C28.8584 123.323 28.8921 122.899 28.9297 122.471C28.9672 121.972 29.0159 121.474 29.0647 120.983C29.1135 120.492 29.1622 119.896 29.2223 119.357C29.2823 118.818 29.331 118.271 29.3911 117.731C29.4511 117.192 29.5111 116.653 29.5786 116.117C29.6461 115.581 29.7062 115.038 29.7812 114.502C29.8375 114.06 29.8937 113.613 29.9575 113.167C30.0438 112.538 30.1338 111.909 30.2276 111.284C30.2276 111.188 30.2576 111.095 30.2726 111.002C30.9582 106.427 31.8898 101.892 33.0635 97.4157L66.7348 97.4045Z" fill="#006D75"/>
<path opacity="0.1" d="M28.6672 125.815H66.7349V177.276H31.4506C31.3606 177.808 31.2705 178.336 31.1692 178.868H66.7349V220.363C66.6749 220.363 66.6148 220.318 66.5586 220.296C65.5582 219.901 64.5579 219.484 63.5576 219.042C63.3437 218.945 63.1337 218.845 62.9161 218.752C61.9158 218.283 60.9154 217.787 59.9151 217.264C59.5662 217.082 59.2174 216.892 58.876 216.698C53.3225 213.625 48.2751 209.729 43.9085 205.144C43.7772 205.021 43.6572 204.887 43.5334 204.772C42.9257 204.117 42.3292 203.455 41.7515 202.778C41.534 202.528 41.3239 202.275 41.1101 202.034C40.4273 201.208 39.7671 200.352 39.1294 199.493C39.0319 199.363 38.9418 199.236 38.8481 199.121C36.2357 195.536 34.0693 191.651 32.3959 187.551C32.3434 187.428 32.2946 187.294 32.2459 187.179C31.7282 185.877 31.2593 184.556 30.8541 183.21C30.6816 182.648 30.5128 182.094 30.3702 181.51C30.3177 181.342 30.2764 181.171 30.2314 181.004C28.1232 172.763 27.8794 164.2 27.8794 155.677C27.8794 154.685 27.8794 153.693 27.8794 152.701C27.9094 149.221 27.9507 145.745 28.0032 142.273C28.0232 141.38 28.042 140.484 28.0595 139.583C28.112 137.304 28.187 135.02 28.2845 132.731C28.307 132.099 28.337 131.462 28.3708 130.834C28.3858 130.469 28.4046 130.105 28.4271 129.74C28.4946 128.423 28.5746 127.115 28.6672 125.815Z" fill="#006D75"/>
<path opacity="0.1" d="M104.45 77.8552V124.223H75.8242V77.8552H79.9056V62.1562H96.6587V77.8552H104.45Z" fill="#006D75"/>
<path opacity="0.1" d="M104.446 125.812H75.8242V177.272H104.446V125.812Z" fill="#006D75"/>
<path opacity="0.1" d="M75.8279 178.868H104.45V221.65C101.074 222.614 97.6326 223.339 94.1527 223.819C93.8676 223.86 93.5863 223.893 93.3012 223.923C92.8811 223.971 92.4647 224.016 92.0483 224.053L90.7916 224.154H90.6641L90.1089 224.183H89.9176C89.6925 224.183 89.4712 224.209 89.2461 224.213H89.2273C88.9047 224.213 88.5859 224.235 88.2633 224.243H87.8506C87.5318 224.243 87.2129 224.243 86.8866 224.243H86.1813H85.6074C85.3636 224.243 85.1235 224.243 84.8797 224.213C84.4945 224.198 84.1044 224.176 83.7093 224.146L82.9853 224.094C82.6852 224.072 82.3851 224.042 82.0887 224.012C81.4585 223.958 80.8333 223.887 80.2131 223.8L79.4628 223.696L79.0877 223.644C78.4613 223.551 77.8386 223.447 77.2121 223.328C76.7469 223.246 76.2893 223.153 75.8279 223.056V178.868Z" fill="#006D75"/>
<path opacity="0.1" d="M283.388 72.3791H259.786V124.219H283.388V72.3791Z" fill="#006D75"/>
<path opacity="0.1" d="M283.392 125.812V177.276H166.237V155.078H228.639V168.173H259.786V125.812H283.392Z" fill="#006D75"/>
<path opacity="0.1" d="M283.764 234.049C283.64 234.049 283.516 234.049 283.388 234.027V267.787C279.16 267.442 274.946 266.96 270.747 266.34C251.834 263.606 233.395 258.285 215.956 250.529C210.922 248.277 205.99 245.823 201.161 243.167C193.096 238.734 185.369 233.722 178.042 228.171C176.196 226.772 174.378 225.343 172.588 223.882C171.346 222.863 170.116 221.821 168.863 220.813C168 220.117 167.126 219.429 166.237 218.774V178.868H259.478C259.41 178.63 259.35 178.396 259.283 178.158C259.354 178.396 259.422 178.63 259.482 178.868H283.392V234.023C283.516 234.027 283.64 234.038 283.764 234.049Z" fill="#006D75"/>
<path opacity="0.1" d="M344.95 68.5176H329.57V63.7782H336.461V49.6602C337.059 49.8785 337.654 50.1017 338.247 50.3298V63.7782H344.946L344.95 68.5176Z" fill="#006D75"/>
<path opacity="0.1" d="M382.009 124.223H306.496C306.504 124.225 306.511 124.225 306.519 124.223H306.485H292.485V72.3828H296.454V110.7H314.588V88.0074H329.574V70.1024H344.954V88.0186H359.933V110.711H382.013L382.009 124.223Z" fill="#006D75"/>
<path opacity="0.1" d="M292.485 125.815V177.276H382.013V125.815H292.485ZM406.302 237.847L406.43 197.112H382.013V178.883H292.485V268.364C299.825 268.666 307.175 268.578 314.505 268.1H314.633C318.134 267.876 321.619 267.559 325.087 267.147H325.166C343.677 265.01 361.776 260.216 378.895 252.914" fill="#006D75"/>
<path opacity="0.1" d="M417.102 178.868H437.985C437.805 189.318 435.689 199.582 431.057 209.061C427.208 216.936 421.855 223.822 415.526 229.838V197.101H417.102V178.868Z" fill="#006D75"/>
<path opacity="0.1" d="M438 177.276H417.102V134.267H428.412C434.26 147.82 437.981 162.7 438 177.276Z" fill="#006D75"/>
<path opacity="0.1" d="M283.392 86.791H270.747V103.044H283.392V86.791Z" fill="#006D75"/>
<path opacity="0.1" d="M283.392 120.481H270.747V124.223H283.392V120.481Z" fill="#006D75"/>
<path opacity="0.1" d="M283.392 125.812H270.747V136.73H283.392V125.812Z" fill="#006D75"/>
<path opacity="0.1" d="M283.392 154.17H270.747V170.423H283.392V154.17Z" fill="#006D75"/>
<path opacity="0.1" d="M283.392 187.86H270.747V204.113H283.392V187.86Z" fill="#006D75"/>
<path opacity="0.1" d="M283.392 234.023C283.516 234.023 283.64 234.023 283.767 234.049C283.643 234.049 283.52 234.049 283.392 234.027V237.803H270.747V221.549H283.392V234.023Z" fill="#006D75"/>
<path opacity="0.1" d="M283.392 255.235V267.787C279.161 267.442 274.946 266.96 270.747 266.34V255.235H283.392Z" fill="#006D75"/>
<path opacity="0.1" d="M220.431 176.082H166.237V177.276H220.431V176.082Z" fill="#006D75"/>
<path opacity="0.1" d="M220.431 178.865H166.237V183.44H220.431V178.865Z" fill="#006D75"/>
<path opacity="0.1" d="M220.431 198.44H166.237V205.798H220.431V198.44Z" fill="#006D75"/>
<path opacity="0.1" d="M220.431 220.798V228.156H178.042C176.196 226.763 174.378 225.332 172.588 223.863C171.342 222.848 170.112 221.806 168.863 220.798H220.431Z" fill="#006D75"/>
<path opacity="0.1" d="M220.431 243.152V250.529H215.956C210.922 248.277 205.99 245.823 201.161 243.167L220.431 243.152Z" fill="#006D75"/>
<path opacity="0.1" d="M325.174 130.8H314.505V141.38H325.174V130.8Z" fill="#006D75"/>
<path opacity="0.1" d="M94.1788 81.5046H83.5103V92.0847H94.1788V81.5046Z" fill="#006D75"/>
<path opacity="0.1" d="M94.1788 106.08H83.5103V116.66H94.1788V106.08Z" fill="#006D75"/>
<path opacity="0.1" d="M94.1788 130.655H83.5103V141.235H94.1788V130.655Z" fill="#006D75"/>
<path opacity="0.1" d="M94.1788 155.227H83.5103V165.807H94.1788V155.227Z" fill="#006D75"/>
<path opacity="0.1" d="M94.1788 179.802H83.5103V190.382H94.1788V179.802Z" fill="#006D75"/>
<path opacity="0.1" d="M94.1788 204.377H83.5103V214.957H94.1788V204.377Z" fill="#006D75"/>
<path opacity="0.1" d="M365.901 130.8H355.232V141.38H365.901V130.8Z" fill="#006D75"/>
<path opacity="0.1" d="M325.174 156.897H314.505V167.477H325.174V156.897Z" fill="#006D75"/>
<path opacity="0.1" d="M365.901 156.897H355.232V167.477H365.901V156.897Z" fill="#006D75"/>
<path opacity="0.1" d="M325.174 182.99H314.505V193.57H325.174V182.99Z" fill="#006D75"/>
<path opacity="0.1" d="M365.901 182.99H355.232V193.57H365.901V182.99Z" fill="#006D75"/>
<path opacity="0.1" d="M325.174 209.087H314.505V219.667H325.174V209.087Z" fill="#006D75"/>
<path opacity="0.1" d="M365.901 209.087H355.232V219.667H365.901V209.087Z" fill="#006D75"/>
<path opacity="0.1" d="M325.174 235.184H314.505V245.764H325.174V235.184Z" fill="#006D75"/>
<path opacity="0.1" d="M365.901 235.184H355.232V245.764H365.901V235.184Z" fill="#006D75"/>
<path opacity="0.1" d="M314.505 268.1V261.277H325.17V267.129L314.505 268.1Z" fill="#006D75"/>
<path opacity="0.1" d="M30.2275 110.99V117.043H66.7347V110.99H30.2275ZM33.8625 116.664H30.8615V111.374H33.8625V116.664ZM37.4975 116.664H34.4965V111.374H37.4975V116.664ZM41.1249 116.664H38.1239V111.374H41.1249V116.664ZM44.7599 116.664H41.7589V111.374H44.7599V116.664ZM48.3911 116.664H45.3901V111.374H48.3911V116.664ZM52.0261 116.664H49.0251V111.374H52.0261V116.664ZM55.661 116.664H52.66V111.374H55.661V116.664ZM59.2922 116.664H56.2912V111.374H59.2922V116.664ZM62.9234 116.664H59.9224V111.374H62.9234V116.664ZM66.5584 116.664H63.5574V111.374H66.5584V116.664Z" fill="#006D75"/>
<path opacity="0.1" d="M30.2275 128.609V134.662H66.7347V128.609H30.2275ZM33.8625 134.282H30.8615V128.992H33.8625V134.282ZM37.4975 134.282H34.4965V128.992H37.4975V134.282ZM41.1249 134.282H38.1239V128.992H41.1249V134.282ZM44.7599 134.282H41.7589V128.992H44.7599V134.282ZM48.3911 134.282H45.3901V128.992H48.3911V134.282ZM52.0261 134.282H49.0251V128.992H52.0261V134.282ZM55.661 134.282H52.66V128.992H55.661V134.282ZM59.2922 134.282H56.2912V128.992H59.2922V134.282ZM62.9234 134.282H59.9224V128.992H62.9234V134.282ZM66.5584 134.282H63.5574V128.992H66.5584V134.282Z" fill="#006D75"/>
<path opacity="0.1" d="M30.2275 146.231V152.28H66.7347V146.231H30.2275ZM33.8625 151.897H30.8615V146.607H33.8625V151.897ZM37.4975 151.897H34.4965V146.607H37.4975V151.897ZM41.1249 151.897H38.1239V146.607H41.1249V151.897ZM44.7599 151.897H41.7589V146.607H44.7599V151.897ZM48.3911 151.897H45.3901V146.607H48.3911V151.897ZM52.0261 151.897H49.0251V146.607H52.0261V151.897ZM55.661 151.897H52.66V146.607H55.661V151.897ZM59.2922 151.897H56.2912V146.607H59.2922V151.897ZM62.9234 151.897H59.9224V146.607H62.9234V151.897ZM66.5584 151.897H63.5574V146.607H66.5584V151.897Z" fill="#006D75"/>
<path opacity="0.1" d="M30.2275 163.85V169.899H66.7347V163.85H30.2275ZM33.8625 169.519H30.8615V164.222H33.8625V169.519ZM37.4975 169.519H34.4965V164.222H37.4975V169.519ZM41.1249 169.519H38.1239V164.222H41.1249V169.519ZM44.7599 169.519H41.7589V164.222H44.7599V169.519ZM48.3911 169.519H45.3901V164.222H48.3911V169.519ZM52.0261 169.519H49.0251V164.222H52.0261V169.519ZM55.661 169.519H52.66V164.222H55.661V169.519ZM59.2922 169.519H56.2912V164.222H59.2922V169.519ZM62.9234 169.519H59.9224V164.222H62.9234V169.519ZM66.5584 169.519H63.5574V164.222H66.5584V169.519Z" fill="#006D75"/>
<path opacity="0.1" d="M30.4038 181.461C30.5464 182.034 30.7152 182.599 30.8877 183.161V181.844H33.8887V187.131H32.2794C32.3244 187.257 32.3732 187.387 32.4257 187.503H66.7497V181.461H30.4038ZM37.5312 187.131H34.5302V181.844H37.5312V187.131ZM41.1586 187.131H38.1576V181.844H41.1586V187.131ZM44.7936 187.131H41.7926V181.844H44.7936V187.131ZM48.4248 187.131H45.4238V181.844H48.4248V187.131ZM52.0598 187.131H49.0588V181.844H52.0598V187.131ZM55.6947 187.131H52.6937V181.844H55.6947V187.131ZM59.326 187.131H56.325V181.844H59.326V187.131ZM62.9572 187.131H59.9562V181.844H62.9572V187.131ZM66.5921 187.131H63.5911V181.844H66.5921V187.131Z" fill="#006D75"/>
<path opacity="0.1" d="M38.8591 199.08C38.9567 199.199 39.0467 199.333 39.1405 199.452H41.1249V201.993L41.7664 202.737V199.437H44.7674V204.772H43.5332C43.6532 204.894 43.7695 205.025 43.9083 205.144H66.7272V199.08H38.8591ZM48.4098 204.772H45.4088V199.459H48.4098V204.772ZM52.0448 204.772H49.0438V199.459H52.0448V204.772ZM55.6798 204.772H52.6787V199.459H55.6798V204.772ZM59.311 204.772H56.31V199.459H59.311V204.772ZM62.9422 204.772H59.9412V199.459H62.9422V204.772ZM66.5771 204.772H63.5761V199.459H66.5771V204.772Z" fill="#006D75"/>
<path opacity="0.1" d="M58.8872 216.698C59.2323 216.892 59.5812 217.07 59.9301 217.26V217.074H62.9311V218.752C63.1486 218.845 63.355 218.945 63.5688 219.042V217.074H66.5698V220.296C66.6268 220.321 66.6858 220.342 66.7461 220.359V216.698H58.8872Z" fill="#006D75"/>
<path opacity="0.1" d="M283.388 234.023H283.764H283.388ZM259.279 178.158C259.35 178.396 259.414 178.634 259.478 178.868C259.422 178.634 259.354 178.396 259.279 178.158ZM79.9204 68.5176V70.1024H96.6773V68.5101L79.9204 68.5176ZM283.392 234.023H283.767H283.392ZM259.279 178.158C259.35 178.396 259.414 178.634 259.478 178.868C259.422 178.634 259.354 178.396 259.279 178.158ZM283.388 234.023H283.764H283.388ZM259.279 178.158C259.35 178.396 259.414 178.634 259.478 178.868C259.422 178.634 259.354 178.396 259.279 178.158Z" fill="#006D75"/>
<path opacity="0.1" d="M329.896 321C350.084 321 366.449 318.393 366.449 315.178C366.449 311.963 350.084 309.356 329.896 309.356C309.709 309.356 293.344 311.963 293.344 315.178C293.344 318.393 309.709 321 329.896 321Z" fill="#006D75"/>
<path opacity="0.1" d="M165.044 315.178C185.231 315.178 201.596 312.571 201.596 309.356C201.596 306.141 185.231 303.534 165.044 303.534C144.857 303.534 128.492 306.141 128.492 309.356C128.492 312.571 144.857 315.178 165.044 315.178Z" fill="#006D75"/>
<path d="M207.126 155.409C207.117 155.372 207.097 155.338 207.069 155.312C206.51 154.765 199.383 144.769 199.383 144.769C199.383 144.769 199.008 143.653 198.4 142.202C198.595 141.952 198.741 141.669 198.832 141.365C198.864 141.237 198.888 141.107 198.903 140.975C198.903 140.934 198.933 140.9 198.944 140.86C199.074 140.355 199.061 139.824 198.907 139.327C198.865 139.454 198.813 139.579 198.753 139.699C198.612 139.265 198.423 138.849 198.19 138.456C197.245 136.842 195.894 135.48 194.9 133.907C193.395 131.462 192.797 128.573 193.208 125.737C193.208 125.882 193.208 126.031 193.208 126.176C193.246 125.614 193.321 125.055 193.433 124.502C193.59 123.873 193.8 123.258 194.06 122.664C194.953 120.637 196.397 118.87 197.275 116.835C197.569 116.148 197.793 115.434 197.942 114.703C198.252 113.482 198.364 112.22 198.276 110.964C198.276 111.262 198.228 111.56 198.183 111.854C198.088 108.834 196.858 105.959 194.735 103.792C191.67 100.738 187.27 99.551 183.061 98.9261C181.293 98.7214 179.603 98.082 178.147 97.066C176.53 96.0281 174.441 95.7788 172.55 96.0057C170.377 96.2387 168.358 97.2287 166.852 98.7996C164.853 100.98 163.986 104.067 161.653 105.905C160.239 107.021 158.446 107.542 156.799 108.301C155.152 109.06 153.595 110.161 153.066 111.79C153.066 111.79 153.066 111.768 153.066 111.757V111.85L153.044 111.909C152.496 113.836 153.554 115.797 154.105 117.72C154.679 119.71 154.717 121.812 154.747 123.87C154.788 126.384 154.826 128.903 154.784 131.422C154.766 132.411 154.732 133.412 154.657 134.398C153.769 134.664 152.906 135.007 152.08 135.424C151.239 135.968 148.096 139.334 148.096 139.334L141.948 162.63L142.03 162.723L141.948 163.039L142.259 162.968C143.129 163.898 145.729 166.547 148.535 168.199L148.797 172.767C148.797 172.767 149.112 177.35 153.363 179.244C153.46 180.832 153.764 187.283 152.357 189.839C151.383 191.706 150.925 193.796 151.029 195.895C151.029 195.895 151.521 199.772 150.962 201.81C150.635 203.173 150.611 204.589 150.89 205.962C150.89 205.962 150.89 206.412 150.89 207.186C150.89 211.312 150.939 224.533 150.89 226.028C150.819 227.796 150.89 253.93 150.89 253.93C150.89 253.93 150.542 266.991 149.424 270.529C148.306 274.067 148.587 285.781 148.587 285.781C148.587 285.781 147.886 299.736 150.365 302.489C150.365 302.611 150.343 302.738 150.339 302.861C150.339 302.916 150.339 302.98 150.339 303.035C150.309 304.096 150.515 305.223 151.434 305.569C153.31 306.283 155.79 308.426 156.259 309.04C156.727 309.654 159.455 311.183 163.011 310.773C165.239 310.525 167.48 310.423 169.722 310.468C169.722 310.468 171.125 310.215 170.671 308.485C170.378 307.407 169.283 305.747 168.503 304.657C168.645 304.695 168.784 304.724 168.915 304.75L169.05 304.776H169.155C169.213 304.78 169.27 304.78 169.328 304.776H169.403C169.473 304.782 169.543 304.782 169.613 304.776C170.555 304.687 174.066 306.309 174.692 307.381C175.319 308.452 177.528 309.267 179.194 309.471C180.184 309.59 182.682 309.389 184.779 309.122C185.835 309.013 186.881 308.824 187.908 308.556C188.403 308.37 188.508 307.775 188.366 307.105C188.197 306.255 187.739 305.488 187.068 304.933C186.46 304.505 185.657 303.378 185.064 302.455L184.907 302.206C185.953 301.216 187.844 297.98 188.418 297.31C189.116 296.495 187.293 266.701 187.293 266.701V251.764L190.087 237.628L192.042 230.147L193.719 218.852C193.719 218.852 196.652 205.661 195.748 204.366C195.748 204.34 194.998 190.758 194.21 187.495C193.869 186.041 193.955 182.767 194.157 179.582C194.369 179.374 194.517 179.11 194.583 178.822C194.65 178.533 194.632 178.232 194.533 177.953C194.477 177.762 194.404 177.577 194.315 177.399C194.315 177.343 194.315 177.283 194.315 177.228C195.935 176.488 197.629 175.917 199.368 175.524C202.163 174.981 201.465 173.552 201.465 173.552C201.465 173.552 202.095 172.328 202.511 171.58C202.928 170.833 202.583 164.233 202.511 163.69C202.485 163.471 202.313 162.258 202.114 160.881C203.01 160.249 204.177 159.464 205.449 158.72C207.868 157.299 207.324 155.8 207.126 155.409ZM170.663 249.726C170.663 249.726 168.566 255.031 169.407 256.389C170.247 257.746 169.268 262.787 169.268 262.787L168.566 270.268C168.566 270.268 166.612 284.145 167.31 287.407C167.857 289.967 168.06 297.611 168.124 300.8C168.076 300.818 168.029 300.841 167.985 300.867L167.891 300.915C168.214 299.661 168.079 297.124 166.477 292.02L166.342 270.938C166.342 270.938 166.094 246.586 168.034 243.863C169.973 241.14 170.66 236.516 170.66 236.516C170.66 236.516 170.239 243.186 169.966 244.953C169.692 246.72 170.663 249.726 170.663 249.726ZM166.758 302.128C166.74 302.172 166.717 302.217 166.702 302.258L166.597 302.124C166.651 302.129 166.705 302.13 166.758 302.128Z" fill="url(#paint0_linear)"/>
<path d="M188.144 310.483C187.06 310.896 181.182 311.599 179.539 311.402C177.896 311.205 175.72 310.379 175.101 309.3C174.482 308.221 171.012 306.592 170.082 306.696C169.7 306.707 169.32 306.655 168.956 306.54C168.315 306.347 167.688 306.108 167.081 305.826C166.996 305.357 167.01 304.875 167.122 304.412C167.144 304.319 167.171 304.227 167.205 304.137C167.423 303.526 167.876 303.026 168.465 302.745L168.6 302.682C168.86 302.571 169.132 302.488 169.41 302.437C172.359 301.875 184.524 303.002 184.524 303.002C184.524 303.002 184.865 303.608 185.334 304.36C185.919 305.29 186.715 306.424 187.315 306.852C187.98 307.416 188.431 308.188 188.594 309.04C188.737 309.698 188.632 310.301 188.144 310.483Z" fill="white"/>
<path opacity="0.1" d="M188.144 310.483C187.06 310.896 181.186 311.599 179.543 311.402C177.899 311.205 175.724 310.375 175.101 309.3C174.478 308.225 171.016 306.592 170.086 306.696C169.155 306.8 167.085 305.826 167.085 305.826C167.085 305.826 166.762 304.337 167.7 303.322L169.575 304.643C169.575 304.643 174.595 306.186 175.525 307.619C176.455 309.051 178.151 309.851 180.6 309.996C182.431 310.115 186.636 309.408 188.606 309.055C188.737 309.698 188.636 310.301 188.144 310.483Z" fill="black"/>
<path d="M170.187 312.38C167.974 312.338 165.761 312.441 163.562 312.689C160.04 313.098 157.35 311.573 156.881 310.944C156.412 310.316 153.985 308.192 152.121 307.448C151.209 307.098 150.995 305.959 151.037 304.896C151.037 304.84 151.037 304.776 151.037 304.721C151.071 304.047 151.172 303.378 151.337 302.723L165.933 302.414L167.197 304.114L167.392 304.375L168.161 305.413C168.161 305.413 168.51 305.866 168.968 306.529C169.74 307.645 170.821 309.293 171.11 310.383C171.571 312.127 170.187 312.38 170.187 312.38Z" fill="white"/>
<path opacity="0.1" d="M170.187 312.38C167.974 312.338 165.761 312.441 163.562 312.689C160.043 313.098 157.35 311.573 156.885 310.944C156.42 310.316 153.985 308.173 152.121 307.455C151.209 307.105 150.995 305.967 151.037 304.903C152.079 305.145 154.27 305.762 155.129 306.837C156.255 308.273 158.269 310.688 161.131 310.84C163.442 310.963 169.069 310.554 171.132 310.39C171.575 312.127 170.187 312.38 170.187 312.38Z" fill="black"/>
<path opacity="0.1" d="M168.45 302.73C168.281 303.973 167.76 304.308 167.385 304.382C167.293 304.4 167.199 304.4 167.107 304.382C167.058 304.379 167.009 304.371 166.961 304.36C166.961 304.36 153.854 307.232 151.205 304.907C151.138 304.847 151.075 304.782 151.018 304.713C151.052 304.039 151.153 303.37 151.318 302.716L165.914 302.407L167.178 304.107C167.397 303.497 167.85 302.997 168.439 302.716L168.45 302.73Z" fill="black"/>
<path opacity="0.1" d="M185.331 304.345C185.038 304.665 184.794 304.847 184.64 304.784C183.95 304.509 178.293 303.553 176.496 304.375C174.7 305.197 168.619 304.509 168.619 304.509C168.619 304.509 168.619 303.794 168.585 302.649C168.845 302.537 169.117 302.455 169.395 302.403C172.344 301.841 184.509 302.968 184.509 302.968C184.509 302.968 184.865 303.593 185.331 304.345Z" fill="black"/>
<path d="M193.891 220.195L192.233 231.557L190.305 239.086L187.544 253.319V268.386C187.544 268.386 189.337 298.363 188.647 299.181C187.957 300 185.334 304.661 184.644 304.39C183.954 304.118 178.297 303.158 176.5 303.977C174.703 304.795 168.623 304.114 168.623 304.114C168.623 304.114 168.484 292.481 167.794 289.196C167.103 285.912 169.035 271.95 169.035 271.95L169.725 264.424C169.725 264.424 170.693 259.357 169.864 257.988C169.035 256.619 171.106 251.292 171.106 251.292C171.106 251.292 170.142 248.275 170.419 246.497C170.697 244.718 171.106 238.011 171.106 238.011C171.106 238.011 170.419 242.669 168.503 245.403C166.586 248.137 166.829 272.642 166.829 272.642L166.965 293.847C170.419 305.074 166.965 303.977 166.965 303.977C166.965 303.977 153.858 306.852 151.209 304.523C148.561 302.195 149.319 287.537 149.319 287.537C149.319 287.537 149.045 275.767 150.148 272.21C151.251 268.654 151.599 255.511 151.599 255.511C151.599 255.511 151.528 229.228 151.599 227.453C151.652 225.965 151.599 212.643 151.599 208.481C151.599 207.707 151.599 207.249 151.599 207.249L153.182 203.35L171.939 201.022H180.912C180.912 201.022 194.416 204.169 195.812 205.527C195.841 205.549 195.867 205.577 195.887 205.609C196.791 206.922 193.891 220.195 193.891 220.195Z" fill="#053D41"/>
<path opacity="0.1" d="M171.117 279.874C171.117 279.874 175.244 289.728 177.19 290.413C179.137 291.097 171.117 279.874 171.117 279.874Z" fill="black"/>
<path opacity="0.1" d="M172.644 294.382C172.644 294.382 186.576 295.067 186.437 296.574C186.298 298.08 172.644 294.382 172.644 294.382Z" fill="black"/>
<path opacity="0.1" d="M154.004 290.443C154.555 290.96 164.631 291.931 163.802 292.876C162.973 293.821 154.833 295.658 154.833 295.658L154.004 290.443Z" fill="black"/>
<path opacity="0.1" d="M152.35 273.442C152.35 273.851 154.42 286.581 154.975 287.128C155.531 287.675 160.081 288.222 160.081 288.222L152.35 273.442Z" fill="black"/>
<path d="M167.373 99.4357C165.397 101.627 164.541 104.733 162.238 106.586C160.839 107.702 159.068 108.234 157.44 108.993C155.812 109.752 154.199 110.909 153.715 112.627C153.175 114.562 154.218 116.537 154.765 118.472C155.332 120.473 155.366 122.564 155.399 124.658C155.437 127.192 155.478 129.725 155.433 132.259C155.366 136.206 155.036 140.335 152.924 143.679C160.55 146.086 168.66 146.414 176.658 146.722C178.195 146.831 179.739 146.793 181.268 146.607C182.593 146.345 183.904 146.016 185.196 145.621C187.749 144.951 190.38 144.617 193.021 144.628C194.172 144.628 195.346 144.699 196.457 144.401C197.567 144.103 198.636 143.341 198.936 142.24C199.203 141.25 198.813 140.197 198.302 139.308C197.372 137.686 196.052 136.332 195.054 134.732C194.035 133.043 193.431 131.139 193.29 129.176C193.148 127.212 193.474 125.243 194.24 123.427C195.125 121.385 196.551 119.606 197.421 117.56C198.312 115.363 198.549 112.959 198.104 110.633C197.658 108.306 196.549 106.155 194.908 104.436C191.88 101.363 187.536 100.172 183.38 99.5399C181.63 99.3349 179.96 98.6951 178.526 97.6798C176.932 96.6382 174.865 96.3852 172.997 96.6158C170.841 96.8553 168.845 97.8563 167.373 99.4357Z" fill="#3F3D56"/>
<g opacity="0.1">
<path opacity="0.1" d="M194.356 121.28C193.591 123.073 193.263 125.019 193.399 126.961C193.483 125.572 193.807 124.209 194.356 122.928C195.238 120.886 196.663 119.108 197.533 117.062C198.245 115.353 198.544 113.504 198.407 111.66C198.33 112.952 198.035 114.222 197.533 115.417C196.663 117.464 195.238 119.238 194.356 121.28Z" fill="black"/>
<path opacity="0.1" d="M155.512 124.152C155.534 125.611 155.557 127.073 155.561 128.531C155.561 126.522 155.542 124.517 155.512 122.512C155.482 120.432 155.444 118.327 154.878 116.321C154.503 115.049 153.947 113.758 153.752 112.475C153.419 114.298 154.368 116.147 154.878 117.966C155.444 119.952 155.482 122.073 155.512 124.152Z" fill="black"/>
<path opacity="0.1" d="M196.584 142.273C195.459 142.574 194.303 142.508 193.152 142.5C190.513 142.483 187.883 142.811 185.331 143.475C184.039 143.868 182.728 144.196 181.403 144.457C179.872 144.645 178.327 144.685 176.789 144.576C169.061 144.275 161.225 143.951 153.824 141.76C153.604 142.246 153.353 142.718 153.073 143.173C160.7 145.577 168.81 145.908 176.804 146.217C178.342 146.326 179.888 146.286 181.418 146.097C182.738 145.839 184.044 145.512 185.331 145.119C187.878 144.453 190.502 144.122 193.137 144.133C194.288 144.133 195.459 144.204 196.569 143.903C197.68 143.601 198.749 142.846 199.049 141.745C199.175 141.235 199.162 140.701 199.011 140.197C198.677 141.239 197.646 141.964 196.584 142.273Z" fill="black"/>
</g>
<path d="M185.473 137.865C185.196 138.482 184.025 143.817 183.748 144.364C183.47 144.911 181.954 153.664 181.816 154.155C181.677 154.646 171.826 152.102 171.826 152.102L165.895 147.173L159.8 141.157C159.8 141.157 159.62 135.729 164.11 133.988C164.415 133.87 164.728 133.773 165.048 133.698C170.494 132.4 169.947 115.975 169.947 115.975L181.125 120.763C181.125 120.763 179.055 130.346 179.126 132.195C179.145 132.817 179.636 133.203 180.278 133.438C181.269 133.718 182.302 133.828 183.331 133.765C183.331 133.765 185.751 137.251 185.473 137.865Z" fill="#FBBEBE"/>
<path d="M205.486 155.863L207.073 156.276C207.073 156.276 208.247 158.047 205.486 159.695C203.733 160.751 202.05 161.917 200.448 163.188L192.289 165.651L190.717 160.759L198.31 155.044L205.486 155.863Z" fill="#006D75"/>
<path opacity="0.1" d="M205.486 155.863L207.073 156.276C207.073 156.276 208.247 158.047 205.486 159.695C203.733 160.751 202.05 161.917 200.448 163.188L192.289 165.651L190.717 160.759L198.31 155.044L205.486 155.863Z" fill="black"/>
<path d="M145.942 160.587L142.769 163.668C142.769 163.668 148.493 170.237 152.897 170.647C157.301 171.056 160.141 165.651 160.141 165.651L156.33 159.698L145.942 160.587Z" fill="#006D75"/>
<path opacity="0.1" d="M145.942 160.587L142.769 163.668C142.769 163.668 148.493 170.237 152.897 170.647C157.301 171.056 160.141 165.651 160.141 165.651L156.33 159.698L145.942 160.587Z" fill="black"/>
<path opacity="0.1" d="M176.088 126.708C182.185 126.708 187.127 121.806 187.127 115.76C187.127 109.713 182.185 104.811 176.088 104.811C169.99 104.811 165.048 109.713 165.048 115.76C165.048 121.806 169.99 126.708 176.088 126.708Z" fill="black"/>
<path d="M176.088 125.886C182.185 125.886 187.127 120.984 187.127 114.938C187.127 108.891 182.185 103.989 176.088 103.989C169.99 103.989 165.048 108.891 165.048 114.938C165.048 120.984 169.99 125.886 176.088 125.886Z" fill="#FBBEBE"/>
<path opacity="0.1" d="M195.894 206.851C193.38 207.136 190.904 207.686 188.508 208.492C184.382 209.853 152.046 208.514 151.596 208.492C151.596 207.718 151.596 207.26 151.596 207.26L153.179 203.362L171.935 201.033H180.908C180.908 201.033 194.412 204.18 195.808 205.538C195.864 206.356 195.894 206.851 195.894 206.851Z" fill="black"/>
<path opacity="0.1" d="M185.473 137.865C185.196 138.482 184.025 143.817 183.748 144.364C183.47 144.911 181.954 153.664 181.816 154.155C181.677 154.646 171.826 152.102 171.826 152.102L165.895 147.173L159.8 141.157C159.8 141.157 159.62 135.729 164.11 133.988L175.258 146.7L180.278 133.438C181.269 133.718 182.302 133.828 183.331 133.765C183.331 133.765 185.751 137.251 185.473 137.865Z" fill="black"/>
<path d="M175.258 147.109L163.847 134.089C163.179 133.666 162.416 133.414 161.625 133.357C160.835 133.299 160.043 133.437 159.319 133.758C156.765 134.855 153.591 135.744 152.762 136.291C151.933 136.838 148.827 140.223 148.827 140.223L158.078 164.222L154.004 180.029C154.004 180.029 154.627 188.105 153.04 191.048C152.074 192.929 151.621 195.029 151.727 197.138C151.727 197.138 152.211 201.04 151.659 203.09C151.337 204.461 151.313 205.884 151.588 207.264C151.588 207.264 184.37 208.633 188.508 207.264C190.904 206.457 193.38 205.906 195.894 205.624C195.894 205.624 195.144 191.933 194.394 188.648C193.643 185.364 195.016 172.842 195.016 172.842L194.12 159.427L199.499 145.662C199.499 145.662 196.584 136.838 193.546 135.949C193.546 135.949 188.028 134.647 186.854 134.033C185.679 133.419 182.228 132.869 182.228 132.869L180.416 133.471L175.258 147.109Z" fill="#006D75"/>
<path opacity="0.1" d="M191.18 158.974L167.167 157.355C166.56 157.314 166.033 157.769 165.992 158.372L163.414 195.97C163.373 196.572 163.832 197.094 164.44 197.135L188.452 198.754C189.06 198.795 189.586 198.34 189.627 197.737L192.205 160.139C192.247 159.537 191.788 159.015 191.18 158.974Z" fill="black"/>
<path d="M192.006 158.157L167.994 156.538C167.386 156.497 166.86 156.952 166.819 157.555L164.241 195.153C164.199 195.756 164.659 196.278 165.266 196.319L189.279 197.938C189.887 197.979 190.413 197.524 190.454 196.921L193.032 159.323C193.073 158.72 192.614 158.198 192.006 158.157Z" fill="#3F3D56"/>
<path d="M191.214 161.104L168.377 159.564L166.03 193.793L188.867 195.333L191.214 161.104Z" fill="white"/>
<path opacity="0.1" d="M189.166 169.841L170.511 168.546L170.148 173.702L188.803 174.997L189.166 169.841Z" fill="black"/>
<path opacity="0.1" d="M188.491 190.331L185.531 190.131L185.347 192.819L188.307 193.018L188.491 190.331Z" fill="black"/>
<path opacity="0.1" d="M185.571 183.846L170.417 182.824L170.233 185.511L185.387 186.533L185.571 183.846Z" fill="black"/>
<path d="M188.387 159.825L172.609 158.761L172.325 162.892L188.104 163.956L188.387 159.825Z" fill="#3F3D56"/>
<path opacity="0.1" d="M188.387 159.825L172.609 158.761L172.325 162.892L188.104 163.956L188.387 159.825Z" fill="black"/>
<path opacity="0.1" d="M176.639 206.096C176.639 206.096 176.5 226.356 171.117 237.989C171.117 237.989 177.607 222.658 177.607 222.044C177.607 221.43 181.193 214.995 180.233 213.079C179.272 211.163 176.639 206.096 176.639 206.096Z" fill="black"/>
<path opacity="0.1" d="M176.932 112.2C176.725 110.406 177.168 108.599 178.181 107.099C178.06 108.602 178.489 110.098 179.388 111.314C180.288 112.529 181.598 113.384 183.08 113.721C182.953 113.612 182.863 113.468 182.821 113.307C182.779 113.147 182.787 112.977 182.844 112.821C183.613 113.684 184.202 114.707 185.072 115.466C185.942 116.225 187.248 116.679 188.272 116.139C189.663 115.395 189.678 113.435 189.318 111.909C188.545 108.661 186.96 105.658 184.708 103.178C184.146 102.428 183.417 101.818 182.577 101.395C181.738 100.971 180.811 100.746 179.869 100.738C177.738 100.574 175.525 100.76 173.616 101.709C172.541 102.29 171.535 102.988 170.615 103.788L165.363 108.037C164.857 108.398 164.425 108.849 164.087 109.368C163.862 109.802 163.727 110.277 163.69 110.764C163.556 112.155 163.815 113.556 164.439 114.809C165.064 116.062 166.028 117.118 167.223 117.858C167.198 116.758 167.503 115.676 168.1 114.748C168.696 113.821 169.557 113.091 170.573 112.65C170.732 112.782 170.861 112.946 170.951 113.131C171.041 113.317 171.09 113.519 171.095 113.725L172.201 111.768C172.366 111.412 172.625 111.107 172.952 110.886C173.634 110.514 174.486 110.953 175.067 111.478C175.649 112.002 176.215 112.657 176.995 112.739L177.025 109.826" fill="black"/>
<path d="M176.932 111.79C176.725 109.996 177.168 108.187 178.181 106.686C177.843 109.662 180.105 112.735 183.084 113.308C182.957 113.2 182.867 113.057 182.824 112.896C182.782 112.736 182.79 112.567 182.847 112.412C183.616 113.275 184.205 114.294 185.076 115.057C185.946 115.819 187.251 116.269 188.275 115.726C189.667 114.982 189.682 113.022 189.322 111.5C188.549 108.252 186.964 105.249 184.712 102.769C184.013 101.924 183.132 101.245 182.135 100.782C181.412 100.517 180.653 100.364 179.884 100.329C177.753 100.165 175.54 100.347 173.631 101.296C172.557 101.88 171.55 102.578 170.63 103.379L165.378 107.627C164.872 107.988 164.439 108.439 164.102 108.959C163.876 109.393 163.741 109.868 163.705 110.354C163.571 111.745 163.831 113.145 164.455 114.398C165.079 115.65 166.043 116.706 167.238 117.445C167.214 116.345 167.519 115.264 168.116 114.336C168.712 113.409 169.573 112.678 170.588 112.237C170.747 112.369 170.875 112.533 170.965 112.719C171.055 112.904 171.104 113.106 171.11 113.312L172.213 111.362C172.376 111.006 172.636 110.701 172.963 110.481C173.646 110.109 174.497 110.548 175.079 111.072C175.66 111.597 176.226 112.248 177.007 112.333L177.037 109.417" fill="#3F3D56"/>
<path d="M182.161 180.847C181.197 180.364 165.254 182.83 165.254 182.83C165.254 182.83 162.628 182.086 156.281 181.052C149.934 180.018 149.529 173.865 149.529 173.865L148.835 161.547L150.977 159.687L160.152 165.639C160.152 165.639 160.295 168.649 160.152 169.192C160.062 169.564 159.822 170.007 159.845 170.308C159.852 170.39 159.886 170.467 159.941 170.527C159.997 170.588 160.071 170.629 160.152 170.643C160.775 170.799 169.26 172.161 169.26 172.161C169.26 172.161 188.928 170.825 193.831 177.395C194.219 177.877 194.513 178.427 194.698 179.017C195.913 183.507 183.035 181.275 182.161 180.847Z" fill="#FBBEBE"/>
<path opacity="0.1" d="M194.709 179.043C193.958 179.374 193.493 179.612 193.493 179.612C193.493 179.612 186.456 179.408 182.502 177.987C178.548 176.565 173.743 176.818 173.743 176.818C173.743 176.818 157.267 174.006 159.822 170.334C159.829 170.416 159.863 170.493 159.919 170.553C159.974 170.614 160.048 170.655 160.13 170.669C160.752 170.825 169.238 172.187 169.238 172.187C169.238 172.187 188.906 170.851 193.808 177.421C194.209 177.901 194.514 178.451 194.709 179.043Z" fill="black"/>
<path d="M201.551 157.37C201.551 157.37 202.519 164.144 202.586 164.694C202.654 165.245 203.003 171.878 202.586 172.633C202.17 173.388 201.551 174.616 201.551 174.616C201.551 174.616 202.241 176.052 199.48 176.603C196.72 177.153 193.478 178.79 193.478 178.79C193.478 178.79 186.437 178.585 182.506 177.15C178.575 175.714 173.743 175.985 173.743 175.985C173.743 175.985 152.83 172.425 161.803 168.08C170.776 163.735 177.123 169.62 177.123 169.62L187.128 169.006C187.128 169.006 190.856 166.744 191.892 166.953C192.623 167.045 193.365 166.926 194.03 166.61L194.101 159.423L201.551 157.37Z" fill="#FBBEBE"/>
<path opacity="0.1" d="M150.819 140.74L148.816 140.636L142.746 164.073C142.746 164.073 149.3 162.429 152.124 164.073C154.949 165.717 160.13 166.056 160.13 166.056L158.198 147.373L150.819 140.74Z" fill="black"/>
<path d="M150.819 140.328L148.816 140.223L142.746 163.66C142.746 163.66 149.3 162.016 152.124 163.66C154.949 165.305 160.13 165.643 160.13 165.643L158.198 146.961L150.819 140.328Z" fill="#006D75"/>
<path opacity="0.1" d="M196.723 145.461L199.48 146.079C199.48 146.079 206.521 156.123 207.073 156.685C207.624 157.247 204.447 159.289 203.138 159.289C201.829 159.289 195.41 160.033 193.546 161.752C191.681 163.471 192.458 154.821 192.458 154.624C192.458 154.427 194.772 148.969 194.772 148.969L196.723 145.461Z" fill="black"/>
<path d="M196.723 145.052L199.48 145.666C199.48 145.666 206.521 155.729 207.073 156.276C207.624 156.823 204.447 158.88 203.138 158.88C201.829 158.88 195.41 159.624 193.546 161.343C191.681 163.061 192.458 154.412 192.458 154.215C192.458 154.018 194.788 148.542 194.788 148.542L196.723 145.052Z" fill="#006D75"/>
<g opacity="0.1">
<path opacity="0.1" d="M178.162 106.72C178.146 106.434 178.152 106.148 178.181 105.864C177.609 106.714 177.217 107.669 177.025 108.673V109.536C177.025 109.536 177.025 109.517 177.025 109.506V109.711C177.025 110.313 177.025 110.92 177.006 111.522H176.954V111.801C176.954 111.705 176.954 111.612 176.935 111.515C176.185 111.396 175.649 110.771 175.09 110.272C174.531 109.774 173.657 109.298 172.974 109.681C172.647 109.901 172.387 110.206 172.224 110.563L171.11 112.512C171.105 112.307 171.056 112.105 170.966 111.92C170.876 111.736 170.747 111.572 170.588 111.441C169.572 111.881 168.711 112.612 168.114 113.539C167.518 114.467 167.213 115.549 167.238 116.649C166.213 116.012 165.356 115.142 164.737 114.112C164.118 113.081 163.755 111.92 163.678 110.723C163.613 112.059 163.909 113.389 164.534 114.574C165.16 115.76 166.094 116.759 167.238 117.467C167.214 116.368 167.519 115.286 168.116 114.359C168.712 113.431 169.573 112.701 170.588 112.259C170.747 112.391 170.875 112.556 170.965 112.741C171.055 112.926 171.104 113.129 171.11 113.334L172.212 111.385C172.376 111.028 172.636 110.723 172.963 110.503C173.645 110.131 174.497 110.57 175.078 111.095C175.66 111.619 176.226 112.27 177.006 112.356C177.006 111.403 177.017 110.454 177.037 109.506C177.221 108.512 177.603 107.565 178.162 106.72Z" fill="black"/>
<path opacity="0.1" d="M176.894 110.466C176.913 110.213 176.943 109.96 176.98 109.722L177.022 108.695C176.909 109.278 176.866 109.873 176.894 110.466Z" fill="black"/>
<path opacity="0.1" d="M188.275 114.904C187.251 115.447 185.946 114.993 185.075 114.234C184.205 113.476 183.616 112.452 182.847 111.589C182.79 111.746 182.782 111.915 182.825 112.076C182.867 112.237 182.957 112.381 183.084 112.49C183.008 112.49 182.937 112.452 182.866 112.434C183.616 113.29 184.213 114.294 185.075 115.038C185.938 115.782 187.251 116.251 188.275 115.708C189.299 115.164 189.592 113.892 189.502 112.653C189.434 113.628 189.082 114.473 188.275 114.904Z" fill="black"/>
<path opacity="0.1" d="M182.843 112.426C181.589 112.087 180.469 111.376 179.633 110.388C178.798 109.4 178.287 108.182 178.169 106.898C177.955 109.819 180.176 112.746 183.083 113.308C182.96 113.201 182.871 113.061 182.828 112.904C182.785 112.747 182.79 112.58 182.843 112.426Z" fill="black"/>
</g>
<path d="M362.994 173.228C362.994 173.228 361.516 173.024 361.516 170.892C361.516 168.761 360.458 164.769 360.458 164.769C360.458 164.769 359.543 157.823 358.278 156.722C357.014 155.621 355.39 149.155 355.39 149.155C355.39 149.155 355.112 145.647 354.546 144.892C353.979 144.137 353.214 142.288 352.085 139.65C350.956 137.013 346.259 135.205 346.259 135.205C346.259 135.205 337.748 130.309 335.336 128.713C335.115 128.581 334.909 128.426 334.721 128.252C334.3 127.709 332.47 127.698 332.47 127.698C332.278 126.496 332.095 125.12 332.035 123.873C332.035 123.739 332.035 123.605 332.035 123.472C334.724 121.895 336.75 119.409 337.74 116.47C337.785 116.329 337.823 116.184 337.864 116.039C338.029 115.988 338.181 115.904 338.31 115.791C338.439 115.678 338.543 115.539 338.614 115.384C338.828 114.904 338.836 114.346 339.106 113.896C339.421 113.368 340.021 113.085 340.494 112.691C341.687 111.682 341.994 109.99 341.938 108.453C341.9 107.203 341.698 105.946 341.777 104.707C341.777 104.603 341.777 104.499 341.799 104.395C341.822 104.212 341.848 104.023 341.882 103.844C342.065 102.922 342.467 102.051 342.692 101.136C342.917 100.221 342.94 99.1902 342.414 98.4015C341.645 97.2446 340.044 97.0139 338.637 96.9135C337.043 96.7796 335.636 96.9507 334.597 95.6375C334.12 94.9516 333.583 94.3092 332.991 93.7179C332.781 93.5244 330.74 92.2856 330.74 92.2075C328.744 91.2869 326.479 91.1137 324.363 91.7201C323.302 92.0252 322.308 92.5237 321.231 92.773C318.92 93.3161 316.257 92.7283 314.291 94.0415C313.196 94.7856 312.539 95.9723 311.924 97.1218C311.424 98.0692 310.916 99.0178 310.401 99.9677C309.568 101.526 308.728 103.111 308.379 104.837C308.306 105.214 308.26 105.596 308.24 105.979C308.24 106.117 308.24 106.255 308.24 106.392C308.24 106.452 308.24 106.511 308.24 106.571C308.24 106.697 308.24 106.824 308.263 106.943C308.285 107.062 308.263 107.096 308.289 107.174C308.315 107.252 308.323 107.427 308.345 107.546C308.368 107.665 308.413 107.877 308.458 108.037C308.458 108.107 308.503 108.174 308.526 108.245C308.548 108.316 308.608 108.494 308.657 108.617C308.706 108.74 308.709 108.747 308.739 108.81C308.796 108.941 308.863 109.067 308.931 109.183C308.961 109.231 308.983 109.279 309.013 109.328C309.116 109.502 309.231 109.668 309.358 109.826C310.157 110.819 311.343 111.452 312.217 112.382C312.217 112.419 312.217 112.456 312.217 112.493C312.217 112.594 312.217 112.694 312.217 112.798C312.27 114.873 312.834 116.903 313.859 118.712C314.884 120.521 316.34 122.054 318.099 123.178C318.099 123.319 318.117 123.464 318.125 123.609C318.198 124.712 318.184 125.819 318.084 126.92C317.931 126.742 317.739 126.6 317.524 126.505C317.308 126.41 317.074 126.364 316.838 126.37C316.677 126.362 316.516 126.375 316.358 126.41L316.324 126.384V126.418C315.499 126.619 314.483 127.471 313.511 129.893C313.511 129.893 310.555 133.196 308.304 133.058C306.053 132.921 300.355 136.5 300.355 136.5C300.355 136.5 294.796 140.075 293.603 143.72C292.936 145.788 292.136 147.811 291.206 149.777L284.315 163.809L283.051 174.97C283.051 174.97 283.752 179.921 283.613 180.68C283.475 181.439 286.498 188.247 286.498 188.247C286.498 188.247 296.488 205.65 300.569 206.542L300.862 206.341C301.037 206.429 301.222 206.497 301.413 206.542L302.253 205.958C302.305 206.612 302.283 207.27 302.186 207.919C301.627 209.641 302.4 220.854 303.383 223.052C304.365 225.251 304.017 254.082 304.017 254.082L303.878 256.623C303.878 256.623 303.878 256.705 303.911 256.846L303.878 257.449L303.979 257.501C304.084 258.309 304.05 259.129 303.878 259.926C303.525 261.042 303.383 264.193 303.383 264.193C303.383 264.193 300.569 282.005 301.905 285.584C303.24 289.163 304.369 293.084 304.369 293.084C304.369 293.084 305.776 297.548 304.437 298.292C303.097 299.036 299.305 300.357 300.078 302.213C300.79 303.932 303.495 308.538 303.896 309.211L303.863 309.583L303.311 315.509C303.401 316.292 303.615 317.055 303.945 317.771C304.549 319.066 305.72 320.401 307.955 320.256C308.33 320.23 308.762 320.189 309.186 320.133C313.271 319.586 318.298 317.778 318.298 317.778C318.037 317.615 317.799 317.418 317.589 317.194C317.388 317.001 317.229 316.77 317.121 316.514C317.013 316.258 316.959 315.983 316.962 315.706C317.022 314.624 314.985 309.486 314.475 308.218L314.359 307.935C314.359 307.935 319.003 303.117 318.23 298.854C318.23 298.854 313.091 295.878 314.783 294.241C316.474 292.604 319.498 287.917 319.498 287.917C319.498 287.917 319.637 270.376 319.498 267.761C319.353 265.942 319.44 264.112 319.757 262.315C319.813 262.047 319.881 261.783 319.952 261.519C322.294 261.869 324.658 262.047 327.027 262.051C327.892 262.051 328.767 262.033 329.653 261.999C329.653 262.247 329.664 262.514 329.686 262.802C329.881 267.147 330.245 274.77 330.542 277.601C330.962 281.656 333.284 292.597 333.284 292.597C333.284 292.597 328.854 295.413 334.057 302.366C334.057 302.366 334.057 304.881 333.711 305.249C333.343 306.442 333.046 307.656 332.822 308.884C332.605 310.189 332.515 311.517 332.867 312.202C333.711 313.846 338.776 313.712 338.776 313.712C338.816 313.703 338.858 313.697 338.899 313.694C339.855 313.593 340.822 313.683 341.742 313.958C342.663 314.233 343.519 314.687 344.26 315.293C346.184 316.826 353.484 316.156 357.442 315.665C358.991 315.468 360.026 315.293 360.026 315.293C360.076 315.119 360.094 314.938 360.079 314.758C360.038 313.794 359.276 311.681 354.114 309.795C354.114 309.795 349.26 306.558 349.328 303.739H349.219H348.66C349.013 303.727 349.26 303.727 349.26 303.727C349.26 303.727 347.358 296.849 348.135 296.287C348.911 295.725 346.586 288.103 346.586 288.103C346.586 288.103 345.254 275.306 345.179 274.413C345.184 273.643 345.303 272.879 345.532 272.143L345.179 265.123C345.179 265.123 345.111 262.791 345.179 262.032C345.172 261.373 345.119 260.716 345.021 260.064C344.988 259.804 344.954 259.532 344.916 259.264C346.736 258.807 347.917 258.386 347.917 258.386L347.707 233.964C349.253 230.987 349.538 224.455 349.53 219.827C349.53 216.851 349.395 214.649 349.395 214.649L351.507 211.23C351.507 211.23 351.995 207.138 351.222 206.241C350.881 205.836 351.035 205.415 351.316 205.069C351.464 204.949 351.621 204.839 351.785 204.742C351.766 204.716 351.75 204.689 351.736 204.66C351.884 204.538 352.04 204.427 352.205 204.329C352.205 204.329 351.455 203.176 352.126 202.688C352.757 203.112 353.319 203.451 353.747 203.693C353.717 203.964 353.687 204.121 353.687 204.121L353.867 203.749C354.28 203.979 354.531 204.121 354.531 204.121C354.531 204.121 357.839 197.584 357.768 196.624C357.697 195.665 360.019 191.602 360.019 191.602C360.019 191.602 360.3 189.467 361.568 188.574C362.836 187.681 362.551 181.212 362.551 181.212C362.551 181.212 362.904 177.841 363.748 176.469C364.592 175.096 362.994 173.228 362.994 173.228ZM299.688 170.36L299.751 171.919C299.376 171.32 299.106 170.892 299.106 170.892L299.688 170.36Z" fill="url(#paint1_linear)"/>
<path d="M354.726 201.293L353.916 204.716C353.916 204.716 347.426 201.423 346.259 197.257C345.093 193.09 348.214 191.502 348.214 191.502L354.265 194.039L354.726 201.293Z" fill="white"/>
<path opacity="0.1" d="M354.726 201.293L353.916 204.716C353.916 204.716 347.426 201.423 346.259 197.257C345.093 193.09 348.214 191.502 348.214 191.502L354.265 194.039L354.726 201.293Z" fill="black"/>
<path d="M318.305 317.775C318.305 317.775 312.303 319.962 308.177 320.237C305.986 320.382 304.834 319.051 304.242 317.767C303.92 317.059 303.71 316.306 303.619 315.535L304.163 309.639L304.448 306.503L313.215 304.241L314.456 308.009L314.573 308.292C315.068 309.553 317.071 314.665 317.011 315.732C317.006 316.008 317.058 316.283 317.163 316.538C317.268 316.794 317.424 317.026 317.622 317.22C317.825 317.433 318.055 317.619 318.305 317.775Z" fill="white"/>
<path d="M359.284 314.776C359.299 314.956 359.281 315.138 359.231 315.312C359.231 315.312 346.394 317.432 343.769 315.312C343.03 314.692 342.17 314.233 341.243 313.962C340.315 313.691 339.341 313.615 338.382 313.738C338.382 313.738 333.415 313.872 332.586 312.25C332.241 311.569 332.331 310.249 332.545 308.95C332.763 307.729 333.054 306.522 333.415 305.335L333.614 305.178L334.796 304.237L348.63 303.832H348.735C348.668 306.637 353.428 309.854 353.428 309.854C358.496 311.715 359.243 313.816 359.284 314.776Z" fill="white"/>
<path opacity="0.1" d="M359.288 314.776C359.301 314.957 359.282 315.138 359.231 315.312C359.231 315.312 346.394 317.432 343.772 315.312C343.034 314.692 342.173 314.232 341.245 313.961C340.316 313.69 339.341 313.614 338.382 313.738C338.382 313.738 333.411 313.872 332.582 312.25C332.241 311.569 332.327 310.249 332.541 308.947C334.454 309.136 337.474 309.609 338.659 310.74C340.452 312.451 343.491 314.162 345.352 314.3C346.822 314.389 355.566 314.665 359.288 314.776Z" fill="black"/>
<path opacity="0.1" d="M318.305 317.775C318.305 317.775 312.303 319.962 308.177 320.237C305.986 320.382 304.834 319.051 304.242 317.767C305.772 318.277 307.892 318.809 309.006 318.322C310.326 317.737 315.008 317.365 317.634 317.205C317.832 317.423 318.057 317.615 318.305 317.775Z" fill="black"/>
<path d="M327.21 141.481C322.259 139.572 315.889 133.267 317.48 130.32C317.831 129.576 318.041 128.774 318.099 127.954C318.201 126.841 318.216 125.722 318.144 124.606C318.032 122.778 317.81 120.958 317.48 119.156C317.48 119.156 332.939 119.502 332.038 121.76C331.776 122.426 331.731 123.576 331.806 124.859C331.881 126.143 332.065 127.605 332.26 128.836C332.526 130.521 332.8 131.812 332.8 131.812C332.8 131.812 331.851 133.125 331.299 133.196C330.748 133.267 334.315 144.215 327.21 141.481Z" fill="#CF6F80"/>
<path opacity="0.1" d="M314.558 308.273L314.441 308.4C309.82 302.857 304.23 309.769 304.23 309.769L304.148 309.62L304.433 306.484L313.2 304.222L314.441 307.991L314.558 308.273Z" fill="black"/>
<path opacity="0.1" d="M348.743 304.222C348.743 304.222 345.367 304.155 343.566 305.733C341.765 307.31 333.062 306.071 333.438 305.733C333.547 305.561 333.614 305.366 333.633 305.163L334.814 304.222L348.649 303.817C348.701 304.077 348.743 304.222 348.743 304.222Z" fill="black"/>
<path d="M320.308 260.693C320.057 261.309 319.866 261.948 319.738 262.601C319.425 264.389 319.338 266.209 319.479 268.018C319.618 270.622 319.479 288.073 319.479 288.073C319.479 288.073 316.512 292.727 314.854 294.368C313.196 296.008 318.23 298.954 318.23 298.954C318.98 303.199 314.434 307.991 314.434 307.991C309.812 302.448 304.223 309.356 304.223 309.356C304.223 309.356 301.184 304.148 300.427 302.288C299.669 300.428 303.394 299.144 304.703 298.385C306.012 297.626 304.636 293.177 304.636 293.177C304.636 293.177 303.533 289.275 302.22 285.714C300.907 282.154 303.668 264.435 303.668 264.435C303.668 264.435 303.81 261.284 304.152 260.187C304.322 259.395 304.356 258.58 304.253 257.776C304.23 257.505 304.204 257.281 304.185 257.125C304.167 256.969 304.152 256.902 304.152 256.902L304.204 256.813L306.08 253.345C306.08 253.345 321.209 258.509 320.308 260.693Z" fill="#053D41"/>
<path d="M348.743 303.813C348.743 303.813 345.367 303.742 343.566 305.301C341.765 306.86 333.062 305.643 333.438 305.301C333.813 304.959 333.779 302.429 333.779 302.429C328.673 295.513 333.029 292.708 333.029 292.708C333.029 292.708 330.752 281.827 330.339 277.791C330.05 274.974 329.694 267.374 329.503 263.07C329.42 261.21 329.371 259.926 329.371 259.926L333.505 259.112L334.042 259.008L344.102 257.002C344.102 257.002 344.38 258.862 344.568 260.384C344.662 261.033 344.714 261.688 344.721 262.345C344.658 263.089 344.721 265.421 344.721 265.421L345.066 272.4C344.844 273.133 344.728 273.893 344.721 274.658C344.793 275.551 346.102 288.278 346.102 288.278C346.102 288.278 348.379 295.874 347.602 296.421C346.826 296.968 348.743 303.813 348.743 303.813Z" fill="#04373A"/>
<path opacity="0.1" d="M332.038 121.771C331.776 122.437 331.731 123.587 331.806 124.87C329.735 126.107 327.355 126.739 324.938 126.694C322.521 126.65 320.166 125.93 318.144 124.617C318.032 122.789 317.81 120.969 317.48 119.167C317.48 119.167 332.939 119.513 332.038 121.771Z" fill="black"/>
<path d="M338.007 113.557C338.047 116.933 336.735 120.186 334.357 122.601C331.979 125.016 328.731 126.396 325.327 126.436C321.924 126.477 318.644 125.175 316.208 122.817C313.773 120.459 312.381 117.238 312.341 113.862C312.341 113.758 312.341 113.662 312.341 113.557C312.341 110.181 313.693 106.943 316.1 104.556C318.508 102.168 321.773 100.827 325.177 100.827C328.582 100.827 331.847 102.168 334.254 104.556C336.662 106.943 338.014 110.181 338.014 113.557H338.007Z" fill="#CF6F80"/>
<path opacity="0.1" d="M327.21 141.481C322.259 139.572 315.889 133.267 317.48 130.32C317.831 129.576 318.041 128.774 318.099 127.954L324.877 133.482L329.071 136.894L332.26 128.847C332.526 130.532 332.8 131.823 332.8 131.823C332.8 131.823 331.851 133.137 331.299 133.207C330.748 133.278 334.315 144.215 327.21 141.481Z" fill="black"/>
<path d="M344.74 165.911L339.08 260.217L331.697 260.697L312.577 206.014L315.713 141.094L316.377 127.378L324.877 134.301L329.071 137.712L332.354 129.428L338.457 134.703L344.74 165.911Z" fill="#006D75"/>
<path opacity="0.1" d="M320.308 260.693C320.057 261.309 319.866 261.948 319.738 262.601C314.361 261.78 309.139 260.164 304.245 257.806L304.144 257.754L304.178 257.155V256.842L306.053 253.375C306.053 253.375 321.209 258.509 320.308 260.693Z" fill="black"/>
<path opacity="0.1" d="M333.629 262.616C332.256 262.849 330.871 263.007 329.48 263.089C329.398 261.228 329.349 259.945 329.349 259.945L333.505 259.112L333.629 262.616Z" fill="black"/>
<path opacity="0.1" d="M344.583 260.384C341.915 261.072 337.793 261.846 334.109 261.362L334.057 259.008L344.117 257.002C344.117 257.002 344.384 258.848 344.583 260.384Z" fill="black"/>
<path opacity="0.1" d="M334.042 261.794C318.661 264.398 304.576 256.932 304.576 256.932L304.711 254.402C304.711 254.402 305.059 225.723 304.092 223.525C303.124 221.326 302.37 210.192 302.917 208.492C303.465 206.792 300.918 181.123 300.918 181.123L300.505 170.706L285.392 164.616L292.144 150.655C293.056 148.698 293.84 146.685 294.492 144.628C295.666 141.001 301.117 137.441 301.117 137.441C301.117 137.441 306.706 133.884 308.916 134.018C311.125 134.152 314.021 130.871 314.021 130.871C316.159 125.466 318.095 127.895 318.095 127.895C318.095 128.155 318.095 127.895 317.99 128.695C317.24 134.628 330.122 153.378 330.305 153.713L331.547 183.347L332.789 220.85L334.042 261.794Z" fill="black"/>
<path d="M333.629 261.794C318.249 264.398 304.159 256.932 304.159 256.932L304.298 254.402C304.298 254.402 304.643 225.723 303.675 223.525C302.707 221.326 301.953 210.181 302.505 208.466C303.056 206.751 300.494 181.108 300.494 181.108L300.078 170.691L284.968 164.601L291.72 150.64C292.63 148.683 293.414 146.671 294.068 144.617C295.242 141.001 300.712 137.437 300.712 137.437C300.712 137.437 306.301 133.881 308.507 134.014C310.713 134.148 313.623 130.871 313.623 130.871C315.765 125.466 318.125 127.895 318.125 127.895C318.125 128.155 317.9 128.267 318.02 128.695C319.671 134.45 329.739 153.378 329.923 153.713L331.164 183.347L332.38 220.869L333.629 261.794Z" fill="white"/>
<path opacity="0.1" d="M329.484 154.55C327.829 153.865 319.067 143.944 319.067 143.944V141.685C318.748 140.941 316.85 141.395 315.315 141.916L315.976 128.2L316.726 128.817C318.365 134.569 329.304 154.219 329.484 154.55Z" fill="black"/>
<path d="M329.9 153.731C328.242 153.043 319.479 143.125 319.479 143.125V140.863C319.16 140.119 317.266 140.573 315.728 141.094L316.377 127.393L317.127 128.006C318.781 133.75 329.716 153.396 329.9 153.731Z" fill="white"/>
<path opacity="0.1" d="M304.575 203.209C304.782 203.209 315.27 202.115 315.27 202.115C315.27 202.115 321.621 214.503 321.205 217.513C320.788 220.523 320.034 223.194 317.48 222.721C314.925 222.249 303.731 223.093 303.731 223.093L304.575 203.209Z" fill="black"/>
<path d="M304.159 202.387C304.369 202.387 314.858 201.293 314.858 201.293C314.858 201.293 321.205 213.7 320.792 216.676C320.379 219.652 319.618 222.357 317.067 221.884C314.516 221.412 303.315 222.256 303.315 222.256L304.159 202.387Z" fill="white"/>
<path d="M312.063 196.587C312.063 196.587 321.689 201.721 321.895 203.283C322.101 204.846 316.996 202.599 315.893 202.324C315.167 202.153 314.428 202.038 313.683 201.981L306.327 202.179L312.063 196.587Z" fill="#CF6F80"/>
<path opacity="0.1" d="M326.794 155.19C327.353 155.19 327.807 154.74 327.807 154.185C327.807 153.63 327.353 153.181 326.794 153.181C326.235 153.181 325.781 153.63 325.781 154.185C325.781 154.74 326.235 155.19 326.794 155.19Z" fill="black"/>
<path d="M326.794 154.78C327.353 154.78 327.807 154.331 327.807 153.776C327.807 153.221 327.353 152.771 326.794 152.771C326.235 152.771 325.781 153.221 325.781 153.776C325.781 154.331 326.235 154.78 326.794 154.78Z" fill="#3F3D56"/>
<path opacity="0.1" d="M328.659 198.671C329.218 198.671 329.671 198.221 329.671 197.666C329.671 197.111 329.218 196.662 328.659 196.662C328.099 196.662 327.646 197.111 327.646 197.666C327.646 198.221 328.099 198.671 328.659 198.671Z" fill="black"/>
<path d="M328.659 198.258C329.218 198.258 329.671 197.808 329.671 197.253C329.671 196.698 329.218 196.249 328.659 196.249C328.099 196.249 327.646 196.698 327.646 197.253C327.646 197.808 328.099 198.258 328.659 198.258Z" fill="#3F3D56"/>
<path opacity="0.1" d="M327.807 176.93C328.366 176.93 328.82 176.48 328.82 175.926C328.82 175.371 328.366 174.921 327.807 174.921C327.248 174.921 326.794 175.371 326.794 175.926C326.794 176.48 327.248 176.93 327.807 176.93Z" fill="black"/>
<path d="M327.807 176.521C328.366 176.521 328.82 176.071 328.82 175.516C328.82 174.962 328.366 174.512 327.807 174.512C327.248 174.512 326.794 174.962 326.794 175.516C326.794 176.071 327.248 176.521 327.807 176.521Z" fill="#3F3D56"/>
<path d="M351.155 201.773C351.155 201.773 351.845 202.8 351.155 203.261C350.465 203.722 351.222 204.905 351.222 204.905C351.222 204.905 349.501 205.902 350.258 206.806C351.016 207.71 350.536 211.769 350.536 211.769L348.465 215.188C348.465 215.188 348.589 217.379 348.596 220.34C348.596 224.961 348.323 231.456 346.807 234.417L347.01 258.714C347.01 258.714 339.759 261.344 333.689 260.54L332.789 221.553C332.789 221.553 334.102 199.444 334.586 195.203C334.869 193.002 334.984 190.782 334.931 188.563C334.931 188.563 334.724 181.926 334.03 178.85C334.03 178.85 333.28 165.502 333.205 161.808C333.171 160.041 333.265 154.884 333.37 149.981C333.486 144.621 333.618 139.565 333.618 139.565L332.249 128.817C332.249 128.817 333.618 128.683 334.03 129.227C334.215 129.398 334.416 129.551 334.631 129.684C336.998 131.269 345.348 136.142 345.348 136.142C345.348 136.142 349.969 137.965 351.076 140.577C352.183 143.188 352.952 145.041 353.488 145.785C354.025 146.529 354.317 150.026 354.317 150.026C354.317 150.026 355.908 156.462 357.149 157.552C358.391 158.642 359.284 165.561 359.284 165.561L348.311 174.118C348.311 174.118 347.347 188.351 347.141 188.901C346.935 189.452 351.155 201.773 351.155 201.773Z" fill="white"/>
<path d="M351.571 201.773C351.571 201.773 352.258 202.8 351.571 203.261C350.885 203.723 351.635 204.906 351.635 204.906C351.635 204.906 349.913 205.902 350.671 206.806C351.429 207.71 350.948 211.769 350.948 211.769L348.885 215.188C348.885 215.188 349.009 217.379 349.02 220.34C349.02 224.961 348.746 231.456 347.231 234.417L347.437 258.714C347.437 258.714 340.186 261.344 334.117 260.54L333.22 221.553C333.22 221.553 334.529 199.444 335.017 195.203C335.3 193.002 335.415 190.782 335.358 188.563C335.358 188.563 335.152 181.926 334.462 178.85C334.462 178.85 333.711 165.502 333.633 161.808C333.599 160.041 333.693 154.884 333.798 149.981C333.914 144.621 334.045 139.565 334.045 139.565L332.237 128.672C332.237 128.672 334.045 128.672 334.462 129.227C334.645 129.4 334.846 129.553 335.062 129.684C337.425 131.269 345.775 136.142 345.775 136.142C345.775 136.142 350.386 137.965 351.511 140.577C352.637 143.188 353.387 145.041 353.923 145.785C354.46 146.529 354.752 150.026 354.752 150.026C354.752 150.026 356.343 156.462 357.584 157.552C358.826 158.642 359.723 165.561 359.723 165.561L348.75 174.118C348.75 174.118 347.786 188.351 347.576 188.901C347.366 189.452 351.571 201.773 351.571 201.773Z" fill="white"/>
<path opacity="0.1" d="M338.431 142.723L339.425 145.588L334.207 150.796C334.323 145.435 334.454 140.38 334.454 140.38L332.646 129.491C332.646 129.491 334.454 129.491 334.871 130.045C335.054 130.218 335.255 130.372 335.471 130.503L339.905 143.185L338.431 142.723Z" fill="black"/>
<path d="M338.007 141.901L339.001 144.762L333.786 149.97C333.899 144.609 334.034 139.554 334.034 139.554L332.222 128.661C332.222 128.661 334.034 128.661 334.447 129.215C334.631 129.388 334.832 129.541 335.047 129.673L339.507 142.366L338.007 141.901Z" fill="white"/>
<path opacity="0.1" d="M338.007 113.557C338.008 114.898 337.795 116.23 337.376 117.504C337.306 117.516 337.234 117.514 337.164 117.497C337.094 117.48 337.029 117.45 336.971 117.408C336.87 114.06 335.212 110.912 333.168 108.238C332.593 107.431 331.897 106.716 331.104 106.117C330.302 105.52 329.305 105.24 328.306 105.332C327.181 105.485 326.186 106.244 325.05 106.34C323.549 106.463 322.206 105.433 320.717 105.384C320.112 105.389 319.514 105.523 318.965 105.775C318.416 106.028 317.927 106.395 317.532 106.85C316.749 107.766 316.168 108.834 315.825 109.986C315.236 111.734 314.914 113.56 314.873 115.403C314.854 116.444 314.753 117.75 313.777 118.129C313.851 117.364 313.764 116.592 313.52 115.861C313.277 115.131 312.883 114.459 312.363 113.888L312.341 113.862C312.341 113.758 312.341 113.662 312.341 113.557C312.341 110.181 313.693 106.943 316.1 104.556C318.508 102.168 321.773 100.827 325.177 100.827C328.582 100.827 331.847 102.168 334.254 104.556C336.662 106.943 338.014 110.181 338.014 113.557H338.007Z" fill="black"/>
<path d="M330.504 93.3459C328.555 92.4365 326.338 92.2645 324.27 92.8622C323.23 93.1673 322.251 93.6621 321.197 93.9113C318.946 94.4507 316.321 93.8667 314.389 95.1724C313.316 95.9165 312.671 97.092 312.07 98.2378L310.57 101.069C309.752 102.62 308.927 104.197 308.586 105.905C308.244 107.613 308.45 109.525 309.542 110.901C310.334 111.898 311.512 112.527 312.374 113.468C312.893 114.042 313.286 114.716 313.528 115.448C313.771 116.18 313.858 116.953 313.785 117.72C314.76 117.348 314.858 116.035 314.88 114.993C314.922 113.151 315.243 111.325 315.833 109.577C316.175 108.425 316.757 107.357 317.54 106.441C317.934 105.985 318.423 105.618 318.972 105.364C319.521 105.111 320.119 104.977 320.725 104.971C322.225 105.023 323.572 106.054 325.057 105.927C326.183 105.834 327.18 105.075 328.313 104.923C329.312 104.829 330.31 105.109 331.112 105.708C331.905 106.305 332.6 107.02 333.171 107.828C335.219 110.507 336.881 113.639 336.979 116.998C337.403 117.304 338.014 116.902 338.224 116.426C338.434 115.949 338.442 115.391 338.708 114.938C339.016 114.413 339.605 114.13 340.066 113.736C341.236 112.735 341.529 111.05 341.484 109.521C341.439 107.992 341.139 106.441 341.431 104.938C341.608 104.019 342.005 103.152 342.223 102.241C342.441 101.329 342.467 100.306 341.953 99.5213C341.203 98.3718 339.623 98.1411 338.247 98.0332C336.682 97.8993 335.283 98.0704 334.285 96.7647C333.816 96.0841 333.289 95.4444 332.71 94.8525C332.503 94.6553 330.504 93.4277 330.504 93.3459Z" fill="#512E4E"/>
<path opacity="0.1" d="M289.72 171.796L285.804 164.613L284.562 175.699C284.562 175.699 285.253 180.624 285.114 181.379C284.975 182.134 287.942 188.905 287.942 188.905C287.942 188.905 297.744 206.222 301.747 207.112L315.251 197.528L311.665 193.012C311.665 193.012 310.424 192.532 310.112 193.012C310.112 193.012 303.45 181.651 302.764 180.832C302.077 180.014 302.208 178.366 302.208 178.366C302.208 178.366 301.173 177.272 301.518 176.246C301.863 175.219 299.537 171.662 299.537 171.662L301.676 169.679L289.72 171.796Z" fill="black"/>
<path d="M286.01 163.79L284.975 164.613L283.733 175.699C283.733 175.699 284.424 180.624 284.285 181.379C284.146 182.134 287.117 188.905 287.117 188.905C287.117 188.905 296.915 206.222 300.918 207.112L314.445 197.528L310.855 193.012C310.855 193.012 309.613 192.532 309.302 193.012C309.302 193.012 302.643 181.651 301.953 180.832C301.263 180.014 301.402 178.366 301.402 178.366C301.402 178.366 300.366 177.272 300.712 176.246C301.057 175.219 298.708 171.662 298.708 171.662L300.847 169.679L286.01 163.79Z" fill="white"/>
<path opacity="0.1" d="M350.258 207.234C351.008 208.138 350.536 212.201 350.536 212.201L348.465 215.597C348.465 215.597 348.589 217.792 348.596 220.753L345.115 221.832C344.8 221.93 344.466 221.951 344.141 221.894C343.816 221.838 343.509 221.705 343.246 221.507C342.984 221.309 342.772 221.051 342.63 220.756C342.488 220.46 342.419 220.136 342.429 219.808L343.033 200.612L351.155 203.689C350.465 204.165 351.222 205.333 351.222 205.333C351.222 205.333 349.5 206.33 350.258 207.234Z" fill="black"/>
<path d="M350.671 206.825C351.421 207.725 350.948 211.788 350.948 211.788L348.885 215.188C348.885 215.188 349.009 217.379 349.02 220.34L345.475 221.438C345.168 221.533 344.841 221.555 344.523 221.5C344.205 221.445 343.905 221.315 343.648 221.122C343.391 220.929 343.185 220.677 343.046 220.388C342.907 220.1 342.839 219.782 342.849 219.462L343.453 200.2L351.571 203.284C350.877 203.76 351.635 204.928 351.635 204.928C351.635 204.928 349.913 205.921 350.671 206.825Z" fill="white"/>
<path d="M353.364 197.666C353.364 197.666 352.813 201.159 351.432 201.364C350.052 201.569 349.433 207.015 348.056 206.825C346.68 206.635 347.591 201.758 347.64 200.813C347.689 199.868 346.139 195.955 347.295 195.066C348.45 194.177 352.126 195.066 352.126 195.066L353.364 197.666Z" fill="#CF6F80"/>
<path opacity="0.1" d="M356.283 170.769L358.882 165.561C358.882 165.561 359.921 169.531 359.921 171.651C359.921 173.772 361.369 173.98 361.369 173.98C361.369 173.98 362.956 175.84 362.12 177.198C361.283 178.556 360.949 181.919 360.949 181.919C360.949 181.919 361.223 188.351 359.982 189.24C358.74 190.129 358.462 192.253 358.462 192.253C358.462 192.253 356.185 196.29 356.257 197.249C356.328 198.209 353.083 204.708 353.083 204.708C353.083 204.708 354.67 196.632 345.423 193.142C345.423 193.142 345.352 190.404 346.042 189.653C346.732 188.901 347.809 188.537 347.133 184.757C346.458 180.978 346.938 176.42 346.938 175.509C346.938 174.598 349.009 168.917 349.009 168.917L356.283 170.769Z" fill="black"/>
<path d="M357.438 164.817L359.711 165.561C359.711 165.561 360.75 169.531 360.75 171.651C360.75 173.772 362.198 173.98 362.198 173.98C362.198 173.98 363.785 175.84 362.949 177.198C362.112 178.556 361.774 181.919 361.774 181.919C361.774 181.919 362.052 188.351 360.81 189.24C359.569 190.129 359.31 192.253 359.31 192.253C359.31 192.253 357.033 196.29 357.104 197.249C357.175 198.209 353.927 204.708 353.927 204.708C353.927 204.708 355.514 196.632 346.267 193.142C346.267 193.142 346.199 190.404 346.89 189.653C347.58 188.901 348.656 188.537 347.981 184.757C347.306 180.978 347.786 176.42 347.786 175.509C347.786 174.597 349.857 168.917 349.857 168.917L357.438 164.817Z" fill="white"/>
<path opacity="0.1" d="M307.216 299.81C307.216 299.81 310.84 297.552 313.218 299.193C315.597 300.833 307.216 299.81 307.216 299.81Z" fill="black"/>
<path opacity="0.1" d="M335.381 292.827C335.381 292.827 338.588 292.418 341.281 295.294C343.975 298.169 335.381 292.827 335.381 292.827Z" fill="black"/>
<g opacity="0.1">
<path opacity="0.1" d="M340.066 112.918C339.605 113.316 339.012 113.595 338.704 114.119C338.442 114.569 338.434 115.127 338.224 115.607C338.014 116.087 337.403 116.485 336.975 116.18C336.877 112.832 335.216 109.688 333.171 107.01C332.6 106.203 331.905 105.489 331.112 104.893C330.309 104.293 329.31 104.012 328.31 104.105C327.184 104.257 326.194 105.016 325.057 105.113C323.557 105.235 322.21 104.205 320.721 104.157C320.116 104.161 319.519 104.294 318.97 104.547C318.421 104.8 317.933 105.167 317.54 105.622C316.757 106.538 316.175 107.607 315.833 108.758C315.243 110.506 314.922 112.332 314.88 114.175C314.858 115.213 314.76 116.507 313.792 116.894C313.815 117.17 313.815 117.448 313.792 117.724C314.771 117.352 314.869 116.039 314.891 114.997C314.933 113.154 315.255 111.329 315.844 109.581C316.186 108.429 316.768 107.36 317.551 106.444C317.945 105.989 318.433 105.622 318.981 105.369C319.53 105.115 320.127 104.981 320.732 104.975C322.233 105.027 323.583 106.058 325.068 105.931C326.194 105.838 327.192 105.079 328.321 104.927C329.321 104.833 330.32 105.113 331.123 105.712C331.916 106.308 332.611 107.024 333.182 107.832C335.227 110.511 336.889 113.643 336.986 117.002C337.414 117.307 338.025 116.906 338.235 116.429C338.445 115.953 338.453 115.395 338.716 114.941C339.023 114.417 339.616 114.134 340.077 113.74C341.248 112.739 341.54 111.054 341.495 109.525C341.495 109.476 341.495 109.432 341.495 109.383C341.42 110.715 341.064 112.066 340.066 112.918Z" fill="black"/>
<path opacity="0.1" d="M312.371 112.657C311.512 111.716 310.334 111.083 309.542 110.086C308.874 109.206 308.493 108.144 308.45 107.043C308.333 108.42 308.72 109.793 309.542 110.909C310.334 111.906 311.512 112.534 312.371 113.476C313.2 114.396 313.699 115.563 313.789 116.794C313.845 116.045 313.748 115.293 313.505 114.582C313.261 113.871 312.875 113.217 312.371 112.657Z" fill="black"/>
<path opacity="0.1" d="M342.223 101.422C342.002 102.334 341.608 103.201 341.428 104.119C341.32 104.741 341.281 105.372 341.311 106.002C341.324 105.646 341.363 105.292 341.428 104.942C341.608 104.023 342.002 103.156 342.223 102.244C342.35 101.741 342.392 101.221 342.347 100.704C342.323 100.946 342.281 101.186 342.223 101.422Z" fill="black"/>
</g>
<path opacity="0.1" d="M49.7905 312.075C69.9777 312.075 86.3427 309.469 86.3427 306.253C86.3427 303.038 69.9777 300.431 49.7905 300.431C29.6033 300.431 13.2383 303.038 13.2383 306.253C13.2383 309.469 29.6033 312.075 49.7905 312.075Z" fill="#006D75"/>
<path d="M50.9682 194.72H48.6162V247.237H50.9682V194.72Z" fill="#535461"/>
<path d="M65.752 247.081L65.6019 249.447L65.3956 252.795L65.3093 254.186L65.0993 257.534L65.0092 258.926L64.8029 262.274L62.4284 300.245C62.3271 301.879 61.6013 303.413 60.3988 304.534C59.1964 305.655 57.608 306.28 55.9575 306.279H43.6271C41.9721 306.28 40.3795 305.653 39.1762 304.526C37.9729 303.399 37.2501 301.858 37.1562 300.219L34.7816 262.248L34.5753 258.9L34.489 257.508L34.2752 254.16L34.1889 252.769L33.9826 249.421L33.8326 247.055C33.8066 246.601 33.874 246.147 34.0306 245.72C34.1872 245.294 34.4297 244.903 34.7434 244.572C35.0571 244.241 35.4355 243.977 35.8554 243.795C36.2754 243.614 36.7282 243.519 37.1862 243.517H62.4021C62.8622 243.52 63.3169 243.615 63.7382 243.798C64.1596 243.982 64.5388 244.248 64.8525 244.582C65.1662 244.916 65.4078 245.31 65.5625 245.739C65.7172 246.169 65.7816 246.625 65.752 247.081Z" fill="#3F3D56"/>
<path d="M65.6018 249.443L65.3917 252.784H34.1888L33.9788 249.443H65.6018Z" fill="#9D9CB5"/>
<path d="M65.3055 254.175L65.0992 257.516H34.4852L34.2751 254.175H65.3055Z" fill="#9D9CB5"/>
<path d="M65.0092 258.911L64.8029 262.248H34.7816L34.5715 258.911H65.0092Z" fill="#9D9CB5"/>
<path d="M30.4039 214.407C44.1035 224.235 49.8092 239.607 49.8092 239.607C49.8092 239.607 33.3036 239.045 19.6003 229.217C5.89699 219.388 0.183838 204.028 0.183838 204.028C0.183838 204.028 16.6893 204.578 30.4039 214.407Z" fill="#006D75"/>
<path d="M0.183838 204.028C0.183838 204.028 17.3158 213.458 22.8114 221.267C28.307 229.075 49.7942 239.614 49.7942 239.614" stroke="#535461" stroke-width="2" stroke-miterlimit="10"/>
<path d="M39.2306 194.608C46.688 199.954 49.7941 208.321 49.7941 208.321C49.7941 208.321 40.7911 208.016 33.3523 202.67C25.9136 197.324 22.7888 188.953 22.7888 188.953C22.7888 188.953 31.7768 189.259 39.2306 194.608Z" fill="#006D75"/>
<path d="M22.7888 188.953C22.7888 188.953 32.1144 194.087 35.1079 198.336C38.1014 202.584 49.7941 208.321 49.7941 208.321" stroke="#535461" stroke-width="2" stroke-miterlimit="10"/>
<path d="M60.6277 207.897C52.0636 217.23 50.2517 229.429 50.2517 229.429C50.2517 229.429 62.327 226.49 70.8836 217.152C79.4402 207.815 81.2596 195.62 81.2596 195.62C81.2596 195.62 69.1918 198.563 60.6277 207.897Z" fill="#006D75"/>
<path d="M81.2671 195.624C81.2671 195.624 70.1108 205.192 67.2749 211.784C64.4389 218.376 50.2517 229.429 50.2517 229.429" stroke="#535461" stroke-width="2" stroke-miterlimit="10"/>
</g>
<defs>
<linearGradient id="paint0_linear" x1="174.632" y1="310.84" x2="174.632" y2="95.9462" gradientUnits="userSpaceOnUse">
<stop stop-color="#808080" stop-opacity="0.25"/>
<stop offset="0.54" stop-color="#808080" stop-opacity="0.12"/>
<stop offset="1" stop-color="#808080" stop-opacity="0.1"/>
</linearGradient>
<linearGradient id="paint1_linear" x1="71378.5" y1="201390" x2="71378.5" y2="60537.6" gradientUnits="userSpaceOnUse">
<stop stop-color="#808080" stop-opacity="0.25"/>
<stop offset="0.54" stop-color="#808080" stop-opacity="0.12"/>
<stop offset="1" stop-color="#808080" stop-opacity="0.1"/>
</linearGradient>
<clipPath id="clip0">
<rect width="438" height="321" fill="white"/>
</clipPath>
</defs>
</svg>
